<svg width="56" height="52" viewBox="0 0 56 52" fill="none" xmlns="http://www.w3.org/2000/svg">
<g filter="url(#filter0_d_5_176)">
<rect width="52" height="48" fill="white"/>
<path fill-rule="evenodd" clip-rule="evenodd" d="M35.6 24.2273C35.6 23.5182 35.5364 22.8364 35.4182 22.1818H26V26.05H31.3818C31.15 27.3 30.4455 28.3591 29.3864 29.0682V31.5773H32.6182C34.5091 29.8364 35.6 27.2727 35.6 24.2273Z" fill="#4285F4"/>
<path fill-rule="evenodd" clip-rule="evenodd" d="M26 34C28.7 34 30.9636 33.1045 32.6181 31.5773L29.3863 29.0682C28.4909 29.6682 27.3454 30.0227 26 30.0227C23.3954 30.0227 21.1909 28.2636 20.4045 25.9H17.0636V28.4909C18.7091 31.7591 22.0909 34 26 34Z" fill="#34A853"/>
<path fill-rule="evenodd" clip-rule="evenodd" d="M20.4045 25.9C20.2045 25.3 20.0909 24.6591 20.0909 24C20.0909 23.3409 20.2045 22.7 20.4045 22.1V19.5091H17.0636C16.3864 20.8591 16 22.3864 16 24C16 25.6136 16.3864 27.1409 17.0636 28.4909L20.4045 25.9Z" fill="#FBBC05"/>
<path fill-rule="evenodd" clip-rule="evenodd" d="M26 17.9773C27.4681 17.9773 28.7863 18.4818 29.8227 19.4727L32.6909 16.6045C30.9591 14.9909 28.6954 14 26 14C22.0909 14 18.7091 16.2409 17.0636 19.5091L20.4045 22.1C21.1909 19.7364 23.3954 17.9773 26 17.9773Z" fill="#EA4335"/>
<rect x="0.5" y="0.5" width="51" height="47" stroke="black"/>
</g>
<defs>
<filter id="filter0_d_5_176" x="0" y="0" width="56" height="52" filterUnits="userSpaceOnUse" color-interpolation-filters="sRGB">
<feFlood flood-opacity="0" result="BackgroundImageFix"/>
<feColorMatrix in="SourceAlpha" type="matrix" values="0 0 0 0 0 0 0 0 0 0 0 0 0 0 0 0 0 0 127 0" result="hardAlpha"/>
<feOffset dx="4" dy="4"/>
<feComposite in2="hardAlpha" operator="out"/>
<feColorMatrix type="matrix" values="0 0 0 0 0 0 0 0 0 0 0 0 0 0 0 0 0 0 1 0"/>
<feBlend mode="normal" in2="BackgroundImageFix" result="effect1_dropShadow_5_176"/>
<feBlend mode="normal" in="SourceGraphic" in2="effect1_dropShadow_5_176" result="shape"/>
</filter>
</defs>
</svg>
