<svg width="23" height="24" viewBox="0 0 23 24" fill="none" xmlns="http://www.w3.org/2000/svg">
<path d="M20.1252 3.01001H2.87516C1.821 3.01001 0.958496 3.91001 0.958496 5.01001V9.00001H2.87516V4.99001H20.1252V19.02H2.87516V15H0.958496V19.01C0.958496 20.11 1.821 20.99 2.87516 20.99H20.1252C21.1793 20.99 22.0418 20.11 22.0418 19.01V5.01001C22.0418 3.90001 21.1793 3.01001 20.1252 3.01001ZM10.5418 16L14.3752 12L10.5418 8.00001V11H0.958496V13H10.5418V16ZM20.1252 3.01001H2.87516C1.821 3.01001 0.958496 3.91001 0.958496 5.01001V9.00001H2.87516V4.99001H20.1252V19.02H2.87516V15H0.958496V19.01C0.958496 20.11 1.821 20.99 2.87516 20.99H20.1252C21.1793 20.99 22.0418 20.11 22.0418 19.01V5.01001C22.0418 3.90001 21.1793 3.01001 20.1252 3.01001ZM10.5418 16L14.3752 12L10.5418 8.00001V11H0.958496V13H10.5418V16Z" fill="white"/>
</svg>
