<svg width="56" height="52" viewBox="0 0 56 52" fill="none" xmlns="http://www.w3.org/2000/svg">
<g filter="url(#filter0_d_5_182)">
<rect width="52" height="48" fill="white"/>
<path d="M34.5236 14H17.4764C17.0848 14 16.7093 14.1555 16.4324 14.4324C16.1555 14.7093 16 15.0848 16 15.4764V32.5236C16 32.9152 16.1555 33.2907 16.4324 33.5676C16.7093 33.8445 17.0848 34 17.4764 34H34.5236C34.9152 34 35.2907 33.8445 35.5676 33.5676C35.8445 33.2907 36 32.9152 36 32.5236V15.4764C36 15.0848 35.8445 14.7093 35.5676 14.4324C35.2907 14.1555 34.9152 14 34.5236 14ZM21.9611 31.0375H18.9542V21.4861H21.9611V31.0375ZM20.4556 20.1625C20.1145 20.1606 19.7816 20.0577 19.4989 19.8667C19.2163 19.6758 18.9965 19.4054 18.8674 19.0897C18.7383 18.774 18.7055 18.4272 18.7734 18.0929C18.8412 17.7586 19.0065 17.4519 19.2485 17.2115C19.4904 16.9711 19.7982 16.8077 20.1329 16.7421C20.4676 16.6764 20.8143 16.7113 21.1291 16.8425C21.444 16.9736 21.7129 17.1951 21.9021 17.479C22.0912 17.7629 22.1919 18.0964 22.1917 18.4375C22.1949 18.6659 22.1521 18.8925 22.0658 19.104C21.9796 19.3155 21.8517 19.5074 21.6896 19.6684C21.5276 19.8294 21.3349 19.9561 21.1229 20.041C20.9108 20.1258 20.6839 20.1672 20.4556 20.1625ZM33.0444 31.0458H30.0389V25.8278C30.0389 24.2889 29.3847 23.8139 28.5403 23.8139C27.6486 23.8139 26.7736 24.4861 26.7736 25.8667V31.0458H23.7667V21.4931H26.6583V22.8167H26.6972C26.9875 22.2292 28.0042 21.225 29.5556 21.225C31.2333 21.225 33.0458 22.2208 33.0458 25.1375L33.0444 31.0458Z" fill="#0A66C2"/>
<rect x="0.5" y="0.5" width="51" height="47" stroke="black"/>
</g>
<defs>
<filter id="filter0_d_5_182" x="0" y="0" width="56" height="52" filterUnits="userSpaceOnUse" color-interpolation-filters="sRGB">
<feFlood flood-opacity="0" result="BackgroundImageFix"/>
<feColorMatrix in="SourceAlpha" type="matrix" values="0 0 0 0 0 0 0 0 0 0 0 0 0 0 0 0 0 0 127 0" result="hardAlpha"/>
<feOffset dx="4" dy="4"/>
<feComposite in2="hardAlpha" operator="out"/>
<feColorMatrix type="matrix" values="0 0 0 0 0 0 0 0 0 0 0 0 0 0 0 0 0 0 1 0"/>
<feBlend mode="normal" in2="BackgroundImageFix" result="effect1_dropShadow_5_182"/>
<feBlend mode="normal" in="SourceGraphic" in2="effect1_dropShadow_5_182" result="shape"/>
</filter>
</defs>
</svg>
